<?xml version="1.0" standalone="no"?>
<!DOCTYPE svg PUBLIC "-//W3C//DTD SVG 20010904//EN"
 "http://www.w3.org/TR/2001/REC-SVG-20010904/DTD/svg10.dtd">
<svg version="1.0" xmlns="http://www.w3.org/2000/svg"
 width="601.000000pt" height="601.000000pt" viewBox="0 0 601.000000 601.000000"
 preserveAspectRatio="xMidYMid meet">
<metadata>
Created by potrace 1.14, written by Peter Selinger 2001-2017
</metadata>
<g transform="translate(0.000000,601.000000) scale(0.100000,-0.100000)"
fill="#000000" stroke="none">
<path d="M2508 5675 c-2 -2 -26 -7 -54 -10 -126 -14 -265 -61 -319 -107 -123
-104 -200 -226 -218 -345 -2 -12 -6 -26 -10 -29 -11 -11 -8 -26 3 -19 6 4 6
-3 0 -21 -10 -25 -9 -26 7 -13 15 12 15 10 -1 -9 -11 -12 -24 -22 -31 -22 -12
0 -35 41 -35 63 0 7 -9 23 -19 36 l-18 24 -59 -28 c-32 -15 -62 -32 -66 -38
-7 -12 17 -85 37 -107 7 -8 18 -28 24 -43 10 -25 8 -29 -14 -39 -14 -6 -25
-16 -25 -22 0 -6 -33 -46 -73 -88 -95 -102 -88 -92 -138 -193 -38 -76 -44 -97
-44 -149 1 -73 33 -217 52 -232 15 -13 62 -5 149 25 57 21 65 18 79 -27 6 -22
10 -23 58 -17 79 10 82 11 85 3 5 -18 -1 -26 -62 -72 -95 -72 -209 -222 -261
-342 -30 -69 -73 -200 -80 -245 -4 -24 -9 -53 -12 -64 -12 -50 -9 -285 3 -350
8 -38 15 -77 17 -85 14 -82 35 -118 115 -200 46 -47 94 -97 108 -111 21 -23
80 -147 72 -154 -2 -1 -24 -14 -51 -30 -26 -15 -54 -36 -61 -47 -8 -11 -29
-29 -47 -40 -17 -11 -62 -44 -98 -73 -57 -46 -107 -76 -133 -79 -17 -2 -19
-17 -8 -50 16 -49 55 -60 84 -24 18 22 121 78 143 78 9 0 123 53 198 91 l60
31 40 -48 c206 -250 468 -391 758 -410 51 -3 108 -7 127 -9 19 -2 89 -7 155
-11 66 -3 123 -9 126 -13 3 -3 14 -26 23 -51 10 -25 26 -53 37 -63 10 -10 19
-29 19 -42 0 -13 13 -46 28 -72 46 -79 72 -141 72 -172 0 -38 22 -59 57 -55
45 5 84 70 52 89 -12 8 -26 43 -33 80 -3 18 0 25 11 25 12 0 9 6 -10 23 -21
19 -55 97 -41 97 3 0 0 8 -5 19 -9 16 -41 153 -37 158 0 1 20 4 43 8 114 17
241 67 362 143 157 100 329 297 406 467 29 65 48 107 50 115 18 74 62 191 79
208 17 17 37 23 91 28 220 18 405 156 459 344 17 57 23 214 11 263 -5 17 -2
33 5 42 7 8 10 24 7 36 -8 30 2 49 25 49 10 0 41 9 68 21 66 28 73 53 35 117
-19 32 -22 34 -65 28 -25 -3 -58 -8 -73 -12 l-28 -7 23 49 c13 27 25 51 28 54
16 16 62 125 76 179 32 129 22 264 -31 392 -23 58 -106 188 -159 249 -39 44
-161 166 -205 203 -129 111 -168 142 -252 200 -98 68 -259 157 -283 157 -8 0
-16 3 -18 8 -10 23 -245 88 -347 96 -40 3 -77 8 -82 12 -5 3 -9 1 -9 -3 0 -22
-56 -10 -104 22 -29 19 -74 44 -101 56 -56 25 -175 60 -175 52 0 -3 -6 -1 -12
5 -7 5 -29 12 -48 15 -19 4 -75 13 -125 21 -80 12 -376 21 -387 11z m337 -93
l30 -9 -25 -13 c-14 -8 -29 -15 -35 -16 -5 -1 -26 -5 -45 -9 -19 -3 -46 -7
-60 -9 -14 -1 -31 -5 -37 -9 -6 -4 -18 -4 -26 -1 -8 3 -18 0 -22 -5 -3 -6 -10
-9 -15 -6 -5 3 -21 -2 -35 -11 -14 -9 -25 -13 -25 -10 0 12 -115 -66 -158
-108 -50 -47 -100 -121 -127 -186 -61 -146 -72 -158 -87 -85 -12 56 -22 64
-65 55 -20 -5 -39 -14 -43 -20 -4 -6 -14 -8 -22 -5 -10 4 -25 -5 -41 -27 l-26
-33 4 35 c21 168 58 249 154 339 82 77 170 115 315 135 98 14 342 13 391 -2z
m338 -85 c4 3 7 1 7 -6 0 -7 5 -9 12 -5 7 4 8 3 4 -4 -8 -13 -40 -1 -52 21 -6
9 -5 9 8 0 8 -7 18 -10 21 -6z m-37 -9 c4 -7 4 -10 -1 -6 -4 4 -15 2 -24 -5
-14 -11 -14 -10 -2 6 16 20 18 21 27 5z m-52 -20 c-3 -4 -14 -8 -25 -8 -10 0
-19 -3 -19 -7 0 -5 -34 -19 -75 -32 -143 -46 -269 -142 -328 -252 -48 -87 -84
-142 -90 -133 -3 5 -6 27 -8 49 -5 71 -13 78 -76 71 -85 -10 -93 -17 -89 -81
2 -29 7 -58 10 -64 9 -13 -29 -24 -56 -15 -37 11 -50 25 -38 39 6 8 13 25 16
40 14 77 71 182 128 238 102 98 183 130 366 143 46 4 96 10 110 14 34 10 180
9 174 -2z m52 -130 c4 -4 -2 -11 -12 -14 -23 -8 -112 -102 -120 -126 -3 -10
-12 -18 -20 -18 -12 0 -14 13 -13 58 2 31 1 63 -2 71 -8 26 143 52 167 29z
m164 -8 c3 -1 9 -2 14 -1 4 1 32 -5 60 -13 51 -15 106 -61 106 -88 0 -10 3 -9
9 1 13 20 21 -8 10 -36 -12 -33 -75 -93 -97 -93 -17 0 -19 5 -14 33 3 17 6 46
6 62 1 26 -2 30 -24 27 -14 -2 -49 -15 -78 -29 -53 -27 -62 -40 -68 -103 -1
-14 -2 -28 -3 -32 -1 -3 -34 -5 -75 -3 -68 3 -126 23 -126 45 0 4 17 19 37 33
21 15 34 27 30 27 -15 0 140 164 163 172 13 4 35 3 50 -2z m-475 -178 c6 -21
5 -22 -13 -11 -12 7 -18 17 -16 21 3 4 0 8 -5 8 -12 0 -15 33 -4 44 7 7 25
-23 38 -62z m1266 -4 c27 -12 49 -26 49 -30 0 -5 4 -7 8 -4 5 3 31 -10 58 -30
27 -19 64 -44 81 -57 18 -12 33 -26 33 -32 0 -5 14 -25 30 -44 16 -18 27 -37
24 -42 -3 -5 1 -9 8 -9 16 0 60 -69 83 -131 27 -74 24 -277 -5 -354 -10 -26
-30 -34 -30 -12 -1 18 -61 73 -87 80 -16 3 -34 -7 -70 -39 -26 -24 -49 -44
-50 -44 -4 0 5 94 16 160 11 68 4 266 -12 340 -6 30 -46 95 -69 115 -12 11
-43 35 -68 54 -55 42 -100 88 -100 103 0 13 35 4 101 -24z m-535 -93 c7 -86
18 -155 30 -179 8 -16 12 -32 9 -34 -3 -3 -5 1 -5 8 0 7 -3 11 -6 7 -4 -3 -36
15 -73 41 -67 47 -116 91 -110 96 2 2 20 11 39 20 20 9 47 27 60 41 29 28 54
28 56 0z m1080 -373 c97 -134 118 -194 120 -337 1 -66 -1 -124 -4 -130 -4 -5
-7 -13 -8 -17 -1 -5 -2 -9 -4 -10 -1 -2 -3 -11 -5 -21 -6 -31 -42 -101 -68
-131 -20 -23 -28 -26 -45 -17 -15 8 -52 75 -52 96 0 2 24 16 53 29 73 35 88
49 83 77 -3 13 -5 27 -5 32 -2 20 -61 67 -83 67 -33 0 -88 -20 -88 -32 0 -5
-4 -7 -9 -3 -12 7 -9 19 23 112 37 106 49 230 32 311 -12 50 13 40 60 -26z
m-2414 -384 c-15 -15 -62 -19 -59 -5 2 13 46 26 60 19 5 -2 4 -9 -1 -14z"/>
</g>
</svg>
